<svg width="39" height="34" viewBox="0 0 39 34" fill="none" xmlns="http://www.w3.org/2000/svg">
<rect x="-0.5" y="0.5" width="38" height="33" rx="4.5" transform="matrix(-1 0 0 1 38 0)" fill="black" stroke="#333232"/>
<rect x="-0.5" y="0.5" width="38" height="33" rx="4.5" transform="matrix(-1 0 0 1 38 0)" fill="black" stroke="#333232"/>
<path d="M21.0229 16.6093L21.0229 16.6094C20.8408 16.8183 20.8408 17.1818 21.0229 17.3907L21.0229 17.3907L28.1137 25.5275C28.2606 25.696 28.4665 25.696 28.6134 25.5277C28.7955 25.3186 28.7955 24.9549 28.6134 24.7459L22.1493 17.3285L21.863 17L22.1493 16.6715L28.6135 9.25404C28.6135 9.25402 28.6135 9.254 28.6135 9.25398C28.7955 9.04505 28.7955 8.68157 28.6136 8.47263L21.0229 16.6093ZM21.0229 16.6093L28.1137 8.47263M21.0229 16.6093L28.1137 8.47263M28.1137 8.47263C28.2606 8.30407 28.4665 8.30405 28.6135 8.47254L28.1137 8.47263ZM17.9771 9.25397L17.9771 9.25398L11.5129 16.6715L11.2267 17L11.5129 17.3285L17.9771 24.746C17.9771 24.746 17.9771 24.746 17.9771 24.746C18.1592 24.955 18.1592 25.3186 17.9771 25.5276C17.8302 25.696 17.6243 25.696 17.4774 25.5275L10.3866 17.3907L10.3866 17.3907C10.2045 17.1818 10.2045 16.8183 10.3866 16.6094L10.3866 16.6094L17.4775 8.4726L17.4775 8.47259C17.6243 8.30406 17.8302 8.30406 17.9771 8.47259L17.9771 8.47261C18.1592 8.68153 18.1592 9.04505 17.9771 9.25397Z" fill="black" stroke="#9B9A9A"/>
</svg>
