<svg width="24" height="24" viewBox="0 0 24 24" fill="none" xmlns="http://www.w3.org/2000/svg">
<path fill-rule="evenodd" clip-rule="evenodd" d="M16.5797 4.28495C17.2754 2.17691 15.7219 0 13.5217 0C12.4809 0 11.5039 0.507739 10.8989 1.36327L5.6097 8.8421H1.25065L0 10.1053V22.7368L1.25065 24H19.5329L23.3742 16.2405C24.515 13.9363 24.0677 11.1535 22.2643 9.33187C21.1529 8.2095 19.6458 7.57895 18.0741 7.57895H15.4924L16.5797 4.28495ZM7.50395 10.5101L12.9343 2.83166C13.0698 2.64005 13.2886 2.52632 13.5217 2.52632C14.0145 2.52632 14.3625 3.01391 14.2066 3.48605L12.0221 10.1053H18.0741C18.9824 10.1053 19.8534 10.4697 20.4955 11.1183C21.5379 12.1709 21.7962 13.7792 21.137 15.1107L17.9871 21.4737H7.50395V10.5101ZM5.00265 21.4737H2.5013V11.3684H5.00265V21.4737Z" fill="#9B9A9A"/>
</svg>
