<svg width="22" height="22" viewBox="0 0 22 22" fill="none" xmlns="http://www.w3.org/2000/svg">
<path d="M8.23162 0C7.53927 0 6.97799 0.476605 6.97799 1.06452C6.97799 1.65243 7.53927 2.12903 8.23162 2.12903V0ZM13.7726 2.12903C14.465 2.12903 15.0263 1.65243 15.0263 1.06452C15.0263 0.476605 14.465 0 13.7726 0V2.12903ZM8.99633 18.0968C8.99633 17.5089 8.43504 17.0323 7.7427 17.0323C7.05035 17.0323 6.48908 17.5089 6.48908 18.0968H8.99633ZM15.5152 18.0968C15.5152 17.5089 14.9539 17.0323 14.2616 17.0323C13.5692 17.0323 13.0079 17.5089 13.0079 18.0968H15.5152ZM11.0021 3.65626L11.0391 2.59221C11.0148 2.5916 10.9908 2.59159 10.9665 2.59217L11.0021 3.65626ZM19.141 9.94684L20.3899 9.85529C20.3878 9.83471 20.3851 9.81427 20.3816 9.79383L19.141 9.94684ZM20.1188 14.2049L18.9209 14.5187C18.9617 14.6309 19.0238 14.7366 19.1052 14.8314L20.1188 14.2049ZM20.4984 16.9187L21.5881 17.4453C21.6143 17.4058 21.6377 17.3651 21.6581 17.3232L20.4984 16.9187ZM18.1842 18.0925V19.1572L18.2001 19.1569L18.1842 18.0925ZM3.81673 18.0925L3.80089 19.157H3.81673V18.0925ZM1.50254 16.9187L0.343354 17.3241C0.363529 17.3657 0.386796 17.4061 0.413006 17.4453L1.50254 16.9187ZM1.87574 14.2092L2.89139 14.8331C2.97169 14.739 3.03325 14.6341 3.07363 14.523L1.87574 14.2092ZM2.85356 9.9511L1.61284 9.79866C1.60942 9.81895 1.60666 9.83925 1.60459 9.85955L2.85356 9.9511ZM8.23162 2.12903H13.7726V0H8.23162V2.12903ZM6.48908 18.0968C6.48908 20.2269 8.47984 22 11.0021 22V19.871C9.92401 19.871 8.99633 19.1022 8.99633 18.0968H6.48908ZM11.0021 22C13.5244 22 15.5152 20.2269 15.5152 18.0968H13.0079C13.0079 19.1022 12.0802 19.871 11.0021 19.871V22ZM10.9652 4.72031C14.4387 4.8072 17.3797 7.05499 17.9002 10.0998L20.3816 9.79383C19.6926 5.76427 15.7746 2.71067 11.0391 2.59221L10.9652 4.72031ZM17.8919 10.0384C18.0467 11.5598 18.3915 13.0622 18.9209 14.5187L21.3166 13.8911C20.8401 12.5795 20.5292 11.2261 20.3899 9.85529L17.8919 10.0384ZM19.1052 14.8314C19.5178 15.3126 19.6095 15.9547 19.3389 16.5142L21.6581 17.3232C22.2575 16.0843 22.0604 14.6611 21.1323 13.5784L19.1052 14.8314ZM19.4089 16.3921C19.1427 16.7895 18.6676 17.0227 18.1685 17.0281L18.2001 19.1569C19.61 19.1418 20.8919 18.4838 21.5881 17.4453L19.4089 16.3921ZM18.1842 17.028H3.81673V19.157L18.1842 19.1572V17.028ZM3.83256 17.0281C3.33342 17.0227 2.85841 16.7895 2.59206 16.3921L0.413006 17.4453C1.10914 18.4838 2.39096 19.142 3.80089 19.157L3.83256 17.0281ZM2.66171 16.5133C2.39103 15.9553 2.48129 15.3144 2.89139 14.8331L0.860099 13.5852C-0.0624521 14.6679 -0.256079 16.0881 0.343354 17.3241L2.66171 16.5133ZM3.07363 14.523C3.60291 13.0664 3.9479 11.5641 4.10254 10.0426L1.60459 9.85955C1.46523 11.2304 1.15443 12.5837 0.677838 13.8953L3.07363 14.523ZM4.09429 10.1035C4.61359 7.05455 7.55974 4.80409 11.0377 4.72035L10.9665 2.59217C6.2248 2.70636 2.30011 5.76369 1.61284 9.79866L4.09429 10.1035Z" fill="#E1E1E6"/>
</svg>
