<svg width="25" height="24" viewBox="0 0 25 24" fill="none" xmlns="http://www.w3.org/2000/svg">
<g clip-path="url(#clip0_34_42)">
<path d="M21.45 14.958H20.8125C20.7607 14.9438 20.7142 14.9205 20.6625 14.9108C19.3215 14.7045 18.2625 13.5893 18.1732 12.2813C18.0705 10.8188 18.9045 9.58128 20.2635 9.17853C20.442 9.12678 20.6295 9.08928 20.8117 9.04278H21.4492C21.4912 9.05703 21.5287 9.08028 21.576 9.08478C22.8135 9.28653 23.7555 10.1768 24.0225 11.3955C24.0412 11.4893 24.0697 11.583 24.093 11.6768V12.3143C24.0787 12.3563 24.0555 12.399 24.051 12.441C23.8545 13.6598 22.9867 14.5883 21.7822 14.8695C21.6652 14.898 21.5572 14.9303 21.4492 14.9588L21.45 14.958ZM3.43122 9.04203H4.06872C4.12047 9.05628 4.16697 9.07953 4.21872 9.08403C5.56872 9.29478 6.62322 10.4153 6.70797 11.7368C6.80172 13.1948 5.95797 14.4278 4.59372 14.826C4.42047 14.8778 4.24197 14.9153 4.06872 14.9573H3.43122C3.38922 14.943 3.35172 14.9198 3.30972 14.91C2.09097 14.685 1.29372 13.977 0.914225 12.7958C0.862475 12.6413 0.834725 12.477 0.792725 12.318V11.6805C0.806975 11.6385 0.830225 11.5958 0.834725 11.5538C1.03647 10.3305 1.89897 9.40653 3.10347 9.12528C3.21597 9.09753 3.32397 9.06903 3.43122 9.04053V9.04203ZM12.1222 9.04203H12.7597C12.8115 9.05628 12.858 9.07953 12.9097 9.08928C14.2552 9.30003 15.3382 10.4625 15.3945 11.775C15.4597 13.2518 14.5695 14.5028 13.1962 14.8545C13.0507 14.892 12.906 14.925 12.7605 14.9573H12.123C12.0712 14.943 12.0247 14.9198 11.973 14.91C10.6275 14.7038 9.54448 13.5368 9.48373 12.2243C9.41323 10.7475 10.3087 9.49653 11.682 9.14478C11.832 9.10728 11.9775 9.07428 12.123 9.04203H12.1222Z" fill="#E1E1E6"/>
</g>
<defs>
<clipPath id="clip0_34_42">
<rect width="24" height="24" fill="white" transform="translate(0.370483)"/>
</clipPath>
</defs>
</svg>
