<svg width="24" height="24" viewBox="0 0 24 24" fill="none" xmlns="http://www.w3.org/2000/svg">
<path d="M21 22.0029H1.5V7.00294H7.5375L9.05475 5.54194L9.01575 5.50294H1.5C0.67125 5.50294 0 6.17494 0 7.00294V22.0029C0 22.8317 0.67125 23.5029 1.5 23.5029H21C21.8288 23.5029 22.5 22.8317 22.5 22.0029V10.2684L21 11.7002V22.0029ZM6.19425 16.0029H7.7055C8.757 10.0382 13.9523 5.50294 20.2185 5.50294C20.4818 5.50294 20.7308 5.50519 20.9828 5.50669L18.2348 8.25469C17.9423 8.54719 17.9423 9.02269 18.2348 9.31519C18.381 9.46219 18.5738 9.53494 18.7658 9.53494C18.9578 9.53494 19.149 9.46144 19.2953 9.31519L23.7255 4.76794L19.2953 0.219938C19.0028 -0.0733125 18.528 -0.0733125 18.2348 0.219938C17.9423 0.513188 17.9423 0.987938 18.2348 1.28044L20.958 4.00294C20.7225 4.00294 20.49 4.00144 20.25 4.00144C13.1475 4.00144 7.27575 9.20419 6.19425 16.0029Z" fill="#9B9A9A"/>
</svg>
